<mxfile host="app.diagrams.net" modified="2024-05-01T17:52:58.434Z" agent="Mozilla/5.0 (Windows NT 10.0; Win64; x64) AppleWebKit/537.36 (KHTML, like Gecko) Chrome/124.0.0.0 Safari/537.36" etag="NTgut6yLUDIs0j2DfJpv" version="24.3.1" type="device">
  <diagram name="Page-1" id="3UcvaVQ_eslCqBQF96OL">
    <mxGraphModel dx="1932" dy="549" grid="1" gridSize="10" guides="1" tooltips="1" connect="1" arrows="1" fold="1" page="1" pageScale="1" pageWidth="827" pageHeight="1169" math="0" shadow="0">
      <root>
        <mxCell id="0" />
        <mxCell id="1" parent="0" />
        <mxCell id="u7MgWPVGGPIYfm7YKbk3-1" value="&lt;font style=&quot;font-size: 22px;&quot;&gt;&lt;b&gt;BYA&lt;/b&gt;&lt;/font&gt;" style="rounded=0;whiteSpace=wrap;html=1;" parent="1" vertex="1">
          <mxGeometry x="358" y="159" width="120" height="241" as="geometry" />
        </mxCell>
        <mxCell id="u7MgWPVGGPIYfm7YKbk3-15" value="" style="endArrow=none;html=1;rounded=0;" parent="1" source="u7MgWPVGGPIYfm7YKbk3-43" edge="1">
          <mxGeometry width="50" height="50" relative="1" as="geometry">
            <mxPoint x="480" y="200" as="sourcePoint" />
            <mxPoint x="600" y="200" as="targetPoint" />
          </mxGeometry>
        </mxCell>
        <mxCell id="u7MgWPVGGPIYfm7YKbk3-16" value="" style="endArrow=none;html=1;rounded=0;" parent="1" source="u7MgWPVGGPIYfm7YKbk3-57" edge="1">
          <mxGeometry width="50" height="50" relative="1" as="geometry">
            <mxPoint x="478" y="360" as="sourcePoint" />
            <mxPoint x="598" y="360" as="targetPoint" />
          </mxGeometry>
        </mxCell>
        <mxCell id="u7MgWPVGGPIYfm7YKbk3-18" value="" style="endArrow=none;html=1;rounded=0;exitX=1;exitY=0.5;exitDx=0;exitDy=0;" parent="1" source="u7MgWPVGGPIYfm7YKbk3-37" edge="1">
          <mxGeometry width="50" height="50" relative="1" as="geometry">
            <mxPoint x="210" y="360" as="sourcePoint" />
            <mxPoint x="358" y="360" as="targetPoint" />
          </mxGeometry>
        </mxCell>
        <mxCell id="u7MgWPVGGPIYfm7YKbk3-19" value="&lt;b&gt;&lt;font style=&quot;font-size: 16px;&quot;&gt;f1&lt;/font&gt;&lt;/b&gt;" style="text;html=1;align=center;verticalAlign=middle;whiteSpace=wrap;rounded=0;" parent="1" vertex="1">
          <mxGeometry x="272" y="169" width="60" height="30" as="geometry" />
        </mxCell>
        <mxCell id="u7MgWPVGGPIYfm7YKbk3-20" value="&lt;b&gt;&lt;font style=&quot;font-size: 16px;&quot;&gt;f2&lt;/font&gt;&lt;/b&gt;" style="text;html=1;align=center;verticalAlign=middle;whiteSpace=wrap;rounded=0;" parent="1" vertex="1">
          <mxGeometry x="270" y="330" width="60" height="30" as="geometry" />
        </mxCell>
        <mxCell id="u7MgWPVGGPIYfm7YKbk3-21" value="&lt;b&gt;&lt;font style=&quot;font-size: 16px;&quot;&gt;Q&lt;sub&gt;n&lt;/sub&gt;&lt;/font&gt;&lt;/b&gt;" style="text;html=1;align=center;verticalAlign=middle;whiteSpace=wrap;rounded=0;" parent="1" vertex="1">
          <mxGeometry x="565" y="169" width="60" height="30" as="geometry" />
        </mxCell>
        <mxCell id="u7MgWPVGGPIYfm7YKbk3-22" value="&lt;b&gt;&lt;font style=&quot;font-size: 16px;&quot;&gt;!Q&lt;sub style=&quot;&quot;&gt;n&lt;/sub&gt;&lt;/font&gt;&lt;/b&gt;" style="text;html=1;align=center;verticalAlign=middle;whiteSpace=wrap;rounded=0;" parent="1" vertex="1">
          <mxGeometry x="565" y="325" width="60" height="30" as="geometry" />
        </mxCell>
        <mxCell id="u7MgWPVGGPIYfm7YKbk3-23" value="&lt;b&gt;&lt;font style=&quot;font-size: 17px;&quot;&gt;&amp;amp;&lt;/font&gt;&lt;/b&gt;" style="rounded=0;whiteSpace=wrap;html=1;" parent="1" vertex="1">
          <mxGeometry x="-80" y="83" width="40" height="80" as="geometry" />
        </mxCell>
        <mxCell id="u7MgWPVGGPIYfm7YKbk3-24" value="" style="ellipse;whiteSpace=wrap;html=1;aspect=fixed;" parent="1" vertex="1">
          <mxGeometry x="-42" y="115" width="10" height="10" as="geometry" />
        </mxCell>
        <mxCell id="u7MgWPVGGPIYfm7YKbk3-25" value="" style="endArrow=none;html=1;rounded=0;" parent="1" edge="1">
          <mxGeometry width="50" height="50" relative="1" as="geometry">
            <mxPoint x="-160" y="104" as="sourcePoint" />
            <mxPoint x="-80" y="104" as="targetPoint" />
          </mxGeometry>
        </mxCell>
        <mxCell id="u7MgWPVGGPIYfm7YKbk3-27" value="" style="endArrow=none;html=1;rounded=0;entryX=0;entryY=0.25;entryDx=0;entryDy=0;exitX=1;exitY=0.5;exitDx=0;exitDy=0;" parent="1" source="u7MgWPVGGPIYfm7YKbk3-24" target="u7MgWPVGGPIYfm7YKbk3-48" edge="1">
          <mxGeometry width="50" height="50" relative="1" as="geometry">
            <mxPoint x="-30" y="120" as="sourcePoint" />
            <mxPoint x="45" y="118.5" as="targetPoint" />
          </mxGeometry>
        </mxCell>
        <mxCell id="u7MgWPVGGPIYfm7YKbk3-28" value="" style="endArrow=none;html=1;rounded=0;edgeStyle=orthogonalEdgeStyle;entryX=0;entryY=0.75;entryDx=0;entryDy=0;" parent="1" target="u7MgWPVGGPIYfm7YKbk3-23" edge="1">
          <mxGeometry width="50" height="50" relative="1" as="geometry">
            <mxPoint x="-120" y="104" as="sourcePoint" />
            <mxPoint x="-140" y="144" as="targetPoint" />
            <Array as="points">
              <mxPoint x="-120" y="143" />
            </Array>
          </mxGeometry>
        </mxCell>
        <mxCell id="u7MgWPVGGPIYfm7YKbk3-29" value="&lt;b&gt;&lt;font style=&quot;font-size: 16px;&quot;&gt;E&lt;sub&gt;1&lt;/sub&gt;&lt;/font&gt;&lt;/b&gt;" style="text;html=1;align=center;verticalAlign=middle;whiteSpace=wrap;rounded=0;" parent="1" vertex="1">
          <mxGeometry x="-161" y="77" width="60" height="30" as="geometry" />
        </mxCell>
        <mxCell id="u7MgWPVGGPIYfm7YKbk3-33" value="&lt;b&gt;&lt;font style=&quot;font-size: 17px;&quot;&gt;&amp;amp;&lt;/font&gt;&lt;/b&gt;" style="rounded=0;whiteSpace=wrap;html=1;" parent="1" vertex="1">
          <mxGeometry x="159" y="159" width="40" height="80" as="geometry" />
        </mxCell>
        <mxCell id="u7MgWPVGGPIYfm7YKbk3-34" value="" style="ellipse;whiteSpace=wrap;html=1;aspect=fixed;" parent="1" vertex="1">
          <mxGeometry x="198" y="195" width="10" height="10" as="geometry" />
        </mxCell>
        <mxCell id="u7MgWPVGGPIYfm7YKbk3-35" value="" style="endArrow=none;html=1;rounded=0;entryX=0.012;entryY=0.167;entryDx=0;entryDy=0;entryPerimeter=0;exitX=1;exitY=0.5;exitDx=0;exitDy=0;" parent="1" source="u7MgWPVGGPIYfm7YKbk3-34" target="u7MgWPVGGPIYfm7YKbk3-1" edge="1">
          <mxGeometry width="50" height="50" relative="1" as="geometry">
            <mxPoint x="210" y="200" as="sourcePoint" />
            <mxPoint x="238" y="198.5" as="targetPoint" />
          </mxGeometry>
        </mxCell>
        <mxCell id="u7MgWPVGGPIYfm7YKbk3-36" value="&lt;b&gt;&lt;font style=&quot;font-size: 17px;&quot;&gt;&amp;amp;&lt;/font&gt;&lt;/b&gt;" style="rounded=0;whiteSpace=wrap;html=1;" parent="1" vertex="1">
          <mxGeometry x="160" y="320" width="40" height="80" as="geometry" />
        </mxCell>
        <mxCell id="u7MgWPVGGPIYfm7YKbk3-37" value="" style="ellipse;whiteSpace=wrap;html=1;aspect=fixed;" parent="1" vertex="1">
          <mxGeometry x="198" y="355" width="10" height="10" as="geometry" />
        </mxCell>
        <mxCell id="u7MgWPVGGPIYfm7YKbk3-38" value="" style="endArrow=none;html=1;rounded=0;" parent="1" source="u7MgWPVGGPIYfm7YKbk3-46" edge="1">
          <mxGeometry width="50" height="50" relative="1" as="geometry">
            <mxPoint y="340" as="sourcePoint" />
            <mxPoint x="159" y="340" as="targetPoint" />
          </mxGeometry>
        </mxCell>
        <mxCell id="u7MgWPVGGPIYfm7YKbk3-39" value="" style="endArrow=none;html=1;rounded=0;" parent="1" source="u7MgWPVGGPIYfm7YKbk3-53" edge="1">
          <mxGeometry width="50" height="50" relative="1" as="geometry">
            <mxPoint x="-40" y="360" as="sourcePoint" />
            <mxPoint x="159" y="360" as="targetPoint" />
          </mxGeometry>
        </mxCell>
        <mxCell id="u7MgWPVGGPIYfm7YKbk3-41" value="" style="endArrow=none;html=1;rounded=0;edgeStyle=orthogonalEdgeStyle;exitX=0;exitY=0.75;exitDx=0;exitDy=0;" parent="1" source="u7MgWPVGGPIYfm7YKbk3-36" edge="1">
          <mxGeometry width="50" height="50" relative="1" as="geometry">
            <mxPoint x="120" y="380" as="sourcePoint" />
            <mxPoint x="520" y="200" as="targetPoint" />
            <Array as="points">
              <mxPoint x="120" y="380" />
              <mxPoint x="120" y="440" />
              <mxPoint x="521" y="440" />
              <mxPoint x="521" y="200" />
            </Array>
          </mxGeometry>
        </mxCell>
        <mxCell id="u7MgWPVGGPIYfm7YKbk3-44" value="" style="endArrow=none;html=1;rounded=0;" parent="1" target="u7MgWPVGGPIYfm7YKbk3-43" edge="1">
          <mxGeometry width="50" height="50" relative="1" as="geometry">
            <mxPoint x="480" y="200" as="sourcePoint" />
            <mxPoint x="600" y="200" as="targetPoint" />
          </mxGeometry>
        </mxCell>
        <mxCell id="u7MgWPVGGPIYfm7YKbk3-43" value="" style="ellipse;whiteSpace=wrap;html=1;aspect=fixed;fillColor=#080808;" parent="1" vertex="1">
          <mxGeometry x="516" y="195" width="10" height="10" as="geometry" />
        </mxCell>
        <mxCell id="u7MgWPVGGPIYfm7YKbk3-45" value="" style="endArrow=none;html=1;rounded=0;edgeStyle=orthogonalEdgeStyle;" parent="1" edge="1">
          <mxGeometry width="50" height="50" relative="1" as="geometry">
            <mxPoint x="80" y="340" as="sourcePoint" />
            <mxPoint x="159" y="220" as="targetPoint" />
            <Array as="points">
              <mxPoint x="80" y="340" />
              <mxPoint x="80" y="220" />
            </Array>
          </mxGeometry>
        </mxCell>
        <mxCell id="u7MgWPVGGPIYfm7YKbk3-47" value="" style="endArrow=none;html=1;rounded=0;" parent="1" target="u7MgWPVGGPIYfm7YKbk3-46" edge="1">
          <mxGeometry width="50" height="50" relative="1" as="geometry">
            <mxPoint x="40" y="340" as="sourcePoint" />
            <mxPoint x="159" y="340" as="targetPoint" />
          </mxGeometry>
        </mxCell>
        <mxCell id="u7MgWPVGGPIYfm7YKbk3-46" value="" style="ellipse;whiteSpace=wrap;html=1;aspect=fixed;fillColor=#080808;" parent="1" vertex="1">
          <mxGeometry x="75" y="335" width="10" height="10" as="geometry" />
        </mxCell>
        <mxCell id="u7MgWPVGGPIYfm7YKbk3-48" value="&lt;b&gt;&lt;font style=&quot;font-size: 17px;&quot;&gt;&amp;amp;&lt;/font&gt;&lt;/b&gt;" style="rounded=0;whiteSpace=wrap;html=1;" parent="1" vertex="1">
          <mxGeometry x="39" y="100" width="40" height="80" as="geometry" />
        </mxCell>
        <mxCell id="u7MgWPVGGPIYfm7YKbk3-49" value="" style="ellipse;whiteSpace=wrap;html=1;aspect=fixed;" parent="1" vertex="1">
          <mxGeometry x="77" y="134" width="10" height="10" as="geometry" />
        </mxCell>
        <mxCell id="u7MgWPVGGPIYfm7YKbk3-50" value="" style="endArrow=none;html=1;rounded=0;edgeStyle=orthogonalEdgeStyle;" parent="1" edge="1">
          <mxGeometry width="50" height="50" relative="1" as="geometry">
            <mxPoint y="360" as="sourcePoint" />
            <mxPoint x="40" y="159" as="targetPoint" />
            <Array as="points">
              <mxPoint y="159" />
            </Array>
          </mxGeometry>
        </mxCell>
        <mxCell id="u7MgWPVGGPIYfm7YKbk3-51" style="edgeStyle=none;rounded=0;orthogonalLoop=1;jettySize=auto;html=1;exitX=0.5;exitY=0;exitDx=0;exitDy=0;" parent="1" source="u7MgWPVGGPIYfm7YKbk3-48" target="u7MgWPVGGPIYfm7YKbk3-48" edge="1">
          <mxGeometry relative="1" as="geometry" />
        </mxCell>
        <mxCell id="u7MgWPVGGPIYfm7YKbk3-52" value="&lt;b&gt;&lt;font style=&quot;font-size: 16px;&quot;&gt;E&lt;sub&gt;2&lt;/sub&gt;&lt;/font&gt;&lt;/b&gt;" style="text;html=1;align=center;verticalAlign=middle;whiteSpace=wrap;rounded=0;" parent="1" vertex="1">
          <mxGeometry x="-42" y="330" width="60" height="30" as="geometry" />
        </mxCell>
        <mxCell id="u7MgWPVGGPIYfm7YKbk3-54" value="" style="endArrow=none;html=1;rounded=0;" parent="1" target="u7MgWPVGGPIYfm7YKbk3-53" edge="1">
          <mxGeometry width="50" height="50" relative="1" as="geometry">
            <mxPoint x="-40" y="360" as="sourcePoint" />
            <mxPoint x="159" y="360" as="targetPoint" />
          </mxGeometry>
        </mxCell>
        <mxCell id="u7MgWPVGGPIYfm7YKbk3-53" value="" style="ellipse;whiteSpace=wrap;html=1;aspect=fixed;fillColor=#080808;" parent="1" vertex="1">
          <mxGeometry x="-5" y="355" width="10" height="10" as="geometry" />
        </mxCell>
        <mxCell id="u7MgWPVGGPIYfm7YKbk3-55" value="" style="endArrow=none;html=1;rounded=0;edgeStyle=orthogonalEdgeStyle;entryX=1;entryY=0.5;entryDx=0;entryDy=0;exitX=0;exitY=0.5;exitDx=0;exitDy=0;" parent="1" source="u7MgWPVGGPIYfm7YKbk3-33" target="u7MgWPVGGPIYfm7YKbk3-49" edge="1">
          <mxGeometry width="50" height="50" relative="1" as="geometry">
            <mxPoint x="119" y="284.5" as="sourcePoint" />
            <mxPoint x="159" y="83.5" as="targetPoint" />
            <Array as="points">
              <mxPoint x="119" y="199" />
              <mxPoint x="119" y="140" />
              <mxPoint x="87" y="140" />
            </Array>
          </mxGeometry>
        </mxCell>
        <mxCell id="u7MgWPVGGPIYfm7YKbk3-56" value="" style="endArrow=none;html=1;rounded=0;edgeStyle=orthogonalEdgeStyle;exitX=0;exitY=0.25;exitDx=0;exitDy=0;" parent="1" source="u7MgWPVGGPIYfm7YKbk3-33" edge="1">
          <mxGeometry width="50" height="50" relative="1" as="geometry">
            <mxPoint x="164" y="40" as="sourcePoint" />
            <mxPoint x="560" y="360" as="targetPoint" />
            <Array as="points">
              <mxPoint x="140" y="179" />
              <mxPoint x="140" y="120" />
              <mxPoint x="560" y="120" />
            </Array>
          </mxGeometry>
        </mxCell>
        <mxCell id="u7MgWPVGGPIYfm7YKbk3-58" value="" style="endArrow=none;html=1;rounded=0;" parent="1" target="u7MgWPVGGPIYfm7YKbk3-57" edge="1">
          <mxGeometry width="50" height="50" relative="1" as="geometry">
            <mxPoint x="478" y="360" as="sourcePoint" />
            <mxPoint x="598" y="360" as="targetPoint" />
          </mxGeometry>
        </mxCell>
        <mxCell id="u7MgWPVGGPIYfm7YKbk3-57" value="" style="ellipse;whiteSpace=wrap;html=1;aspect=fixed;fillColor=#080808;" parent="1" vertex="1">
          <mxGeometry x="555" y="355" width="10" height="10" as="geometry" />
        </mxCell>
        <mxCell id="u7MgWPVGGPIYfm7YKbk3-59" value="&lt;span style=&quot;font-size: 16px;&quot;&gt;&lt;b&gt;C&lt;/b&gt;&lt;/span&gt;" style="text;html=1;align=center;verticalAlign=middle;whiteSpace=wrap;rounded=0;" parent="1" vertex="1">
          <mxGeometry x="25" y="315" width="60" height="30" as="geometry" />
        </mxCell>
        <mxCell id="u7MgWPVGGPIYfm7YKbk3-60" style="edgeStyle=none;rounded=0;orthogonalLoop=1;jettySize=auto;html=1;exitX=0.75;exitY=0;exitDx=0;exitDy=0;" parent="1" source="u7MgWPVGGPIYfm7YKbk3-29" target="u7MgWPVGGPIYfm7YKbk3-29" edge="1">
          <mxGeometry relative="1" as="geometry" />
        </mxCell>
        <mxCell id="4bZR_SqXkPgcP1uEJA29-1" value="&lt;b&gt;&lt;font style=&quot;font-size: 16px;&quot;&gt;C&lt;/font&gt;&lt;/b&gt;" style="rounded=0;whiteSpace=wrap;html=1;" vertex="1" parent="1">
          <mxGeometry x="240" y="720" width="40" height="80" as="geometry" />
        </mxCell>
        <mxCell id="4bZR_SqXkPgcP1uEJA29-2" value="" style="endArrow=none;html=1;rounded=0;" edge="1" parent="1" source="4bZR_SqXkPgcP1uEJA29-7">
          <mxGeometry width="50" height="50" relative="1" as="geometry">
            <mxPoint x="404" y="681" as="sourcePoint" />
            <mxPoint x="480" y="680" as="targetPoint" />
          </mxGeometry>
        </mxCell>
        <mxCell id="4bZR_SqXkPgcP1uEJA29-3" value="" style="endArrow=none;html=1;rounded=0;" edge="1" parent="1" source="4bZR_SqXkPgcP1uEJA29-9">
          <mxGeometry width="50" height="50" relative="1" as="geometry">
            <mxPoint x="402" y="841" as="sourcePoint" />
            <mxPoint x="480" y="760" as="targetPoint" />
          </mxGeometry>
        </mxCell>
        <mxCell id="4bZR_SqXkPgcP1uEJA29-4" value="&lt;b&gt;&lt;font style=&quot;font-size: 16px;&quot;&gt;Q&lt;sub&gt;n&lt;/sub&gt;&lt;/font&gt;&lt;/b&gt;" style="text;html=1;align=center;verticalAlign=middle;whiteSpace=wrap;rounded=0;" vertex="1" parent="1">
          <mxGeometry x="438" y="650" width="60" height="30" as="geometry" />
        </mxCell>
        <mxCell id="4bZR_SqXkPgcP1uEJA29-5" value="&lt;b&gt;&lt;font style=&quot;font-size: 16px;&quot;&gt;!Q&lt;sub style=&quot;&quot;&gt;n&lt;/sub&gt;&lt;/font&gt;&lt;/b&gt;" style="text;html=1;align=center;verticalAlign=middle;whiteSpace=wrap;rounded=0;" vertex="1" parent="1">
          <mxGeometry x="439" y="729" width="60" height="30" as="geometry" />
        </mxCell>
        <mxCell id="4bZR_SqXkPgcP1uEJA29-6" value="" style="endArrow=none;html=1;rounded=0;exitX=1;exitY=0.25;exitDx=0;exitDy=0;" edge="1" parent="1">
          <mxGeometry width="50" height="50" relative="1" as="geometry">
            <mxPoint x="360" y="679.75" as="sourcePoint" />
            <mxPoint x="440" y="680" as="targetPoint" />
          </mxGeometry>
        </mxCell>
        <mxCell id="4bZR_SqXkPgcP1uEJA29-7" value="" style="ellipse;whiteSpace=wrap;html=1;aspect=fixed;fillColor=#080808;" vertex="1" parent="1">
          <mxGeometry x="435" y="675.5" width="10" height="10" as="geometry" />
        </mxCell>
        <mxCell id="4bZR_SqXkPgcP1uEJA29-8" value="" style="endArrow=none;html=1;rounded=0;exitX=1;exitY=0.75;exitDx=0;exitDy=0;" edge="1" parent="1" target="4bZR_SqXkPgcP1uEJA29-9" source="4bZR_SqXkPgcP1uEJA29-14">
          <mxGeometry width="50" height="50" relative="1" as="geometry">
            <mxPoint x="369" y="851" as="sourcePoint" />
            <mxPoint x="489" y="851" as="targetPoint" />
          </mxGeometry>
        </mxCell>
        <mxCell id="4bZR_SqXkPgcP1uEJA29-9" value="" style="ellipse;whiteSpace=wrap;html=1;aspect=fixed;fillColor=#080808;" vertex="1" parent="1">
          <mxGeometry x="395" y="755" width="10" height="10" as="geometry" />
        </mxCell>
        <mxCell id="4bZR_SqXkPgcP1uEJA29-12" value="&lt;font style=&quot;font-size: 15px;&quot;&gt;&lt;b&gt;T&lt;/b&gt;&lt;/font&gt;" style="rounded=0;whiteSpace=wrap;html=1;" vertex="1" parent="1">
          <mxGeometry x="240" y="641" width="40" height="79" as="geometry" />
        </mxCell>
        <mxCell id="4bZR_SqXkPgcP1uEJA29-14" value="&lt;b&gt;&lt;font style=&quot;font-size: 18px;&quot;&gt;T&lt;/font&gt;&lt;/b&gt;" style="rounded=0;whiteSpace=wrap;html=1;" vertex="1" parent="1">
          <mxGeometry x="280" y="641" width="80" height="159" as="geometry" />
        </mxCell>
        <mxCell id="4bZR_SqXkPgcP1uEJA29-15" value="&lt;b&gt;&lt;font style=&quot;font-size: 17px;&quot;&gt;&amp;amp;&lt;/font&gt;&lt;/b&gt;" style="rounded=0;whiteSpace=wrap;html=1;" vertex="1" parent="1">
          <mxGeometry x="119" y="640" width="40" height="80" as="geometry" />
        </mxCell>
        <mxCell id="4bZR_SqXkPgcP1uEJA29-16" value="" style="ellipse;whiteSpace=wrap;html=1;aspect=fixed;" vertex="1" parent="1">
          <mxGeometry x="158" y="674" width="10" height="10" as="geometry" />
        </mxCell>
        <mxCell id="4bZR_SqXkPgcP1uEJA29-17" value="&lt;b&gt;&lt;font style=&quot;font-size: 17px;&quot;&gt;&amp;amp;&lt;/font&gt;&lt;/b&gt;" style="rounded=0;whiteSpace=wrap;html=1;" vertex="1" parent="1">
          <mxGeometry x="-2" y="561" width="40" height="80" as="geometry" />
        </mxCell>
        <mxCell id="4bZR_SqXkPgcP1uEJA29-18" value="" style="ellipse;whiteSpace=wrap;html=1;aspect=fixed;" vertex="1" parent="1">
          <mxGeometry x="37" y="595" width="10" height="10" as="geometry" />
        </mxCell>
        <mxCell id="4bZR_SqXkPgcP1uEJA29-19" style="edgeStyle=none;rounded=0;orthogonalLoop=1;jettySize=auto;html=1;exitX=0.5;exitY=0;exitDx=0;exitDy=0;" edge="1" parent="1" source="4bZR_SqXkPgcP1uEJA29-17" target="4bZR_SqXkPgcP1uEJA29-17">
          <mxGeometry relative="1" as="geometry" />
        </mxCell>
        <mxCell id="4bZR_SqXkPgcP1uEJA29-20" value="" style="endArrow=none;html=1;rounded=0;edgeStyle=orthogonalEdgeStyle;exitX=0;exitY=0.25;exitDx=0;exitDy=0;entryX=0.976;entryY=0.602;entryDx=0;entryDy=0;entryPerimeter=0;" edge="1" parent="1" source="4bZR_SqXkPgcP1uEJA29-15" target="4bZR_SqXkPgcP1uEJA29-18">
          <mxGeometry width="50" height="50" relative="1" as="geometry">
            <mxPoint x="90" y="700" as="sourcePoint" />
            <mxPoint x="60" y="600" as="targetPoint" />
            <Array as="points">
              <mxPoint x="80" y="660" />
              <mxPoint x="80" y="600" />
              <mxPoint x="47" y="600" />
            </Array>
          </mxGeometry>
        </mxCell>
        <mxCell id="4bZR_SqXkPgcP1uEJA29-27" value="" style="endArrow=none;html=1;rounded=0;exitX=1;exitY=0.5;exitDx=0;exitDy=0;" edge="1" parent="1" source="4bZR_SqXkPgcP1uEJA29-16">
          <mxGeometry width="50" height="50" relative="1" as="geometry">
            <mxPoint x="170" y="680" as="sourcePoint" />
            <mxPoint x="239" y="680" as="targetPoint" />
          </mxGeometry>
        </mxCell>
        <mxCell id="4bZR_SqXkPgcP1uEJA29-28" value="" style="endArrow=none;html=1;rounded=0;edgeStyle=orthogonalEdgeStyle;exitX=0;exitY=0.5;exitDx=0;exitDy=0;" edge="1" parent="1" source="4bZR_SqXkPgcP1uEJA29-40">
          <mxGeometry width="50" height="50" relative="1" as="geometry">
            <mxPoint x="160" y="850" as="sourcePoint" />
            <mxPoint x="-80" y="840" as="targetPoint" />
            <Array as="points" />
          </mxGeometry>
        </mxCell>
        <mxCell id="4bZR_SqXkPgcP1uEJA29-29" value="&lt;b&gt;&lt;font style=&quot;font-size: 17px;&quot;&gt;&amp;amp;&lt;/font&gt;&lt;/b&gt;" style="rounded=0;whiteSpace=wrap;html=1;" vertex="1" parent="1">
          <mxGeometry y="719.96" width="40" height="80" as="geometry" />
        </mxCell>
        <mxCell id="4bZR_SqXkPgcP1uEJA29-30" value="" style="ellipse;whiteSpace=wrap;html=1;aspect=fixed;" vertex="1" parent="1">
          <mxGeometry x="38" y="754.96" width="10" height="10" as="geometry" />
        </mxCell>
        <mxCell id="4bZR_SqXkPgcP1uEJA29-31" style="edgeStyle=none;rounded=0;orthogonalLoop=1;jettySize=auto;html=1;exitX=0.5;exitY=0;exitDx=0;exitDy=0;" edge="1" parent="1" source="4bZR_SqXkPgcP1uEJA29-29" target="4bZR_SqXkPgcP1uEJA29-29">
          <mxGeometry relative="1" as="geometry" />
        </mxCell>
        <mxCell id="4bZR_SqXkPgcP1uEJA29-32" value="" style="endArrow=none;html=1;rounded=0;edgeStyle=orthogonalEdgeStyle;entryX=1;entryY=0.5;entryDx=0;entryDy=0;exitX=0;exitY=0.75;exitDx=0;exitDy=0;" edge="1" parent="1" target="4bZR_SqXkPgcP1uEJA29-30" source="4bZR_SqXkPgcP1uEJA29-15">
          <mxGeometry width="50" height="50" relative="1" as="geometry">
            <mxPoint x="120" y="799.96" as="sourcePoint" />
            <mxPoint x="120" y="704.46" as="targetPoint" />
            <Array as="points">
              <mxPoint x="80" y="700" />
              <mxPoint x="80" y="760" />
            </Array>
          </mxGeometry>
        </mxCell>
        <mxCell id="4bZR_SqXkPgcP1uEJA29-33" value="" style="endArrow=none;html=1;rounded=0;edgeStyle=orthogonalEdgeStyle;exitX=0;exitY=0.25;exitDx=0;exitDy=0;entryX=0.5;entryY=0;entryDx=0;entryDy=0;" edge="1" parent="1" source="4bZR_SqXkPgcP1uEJA29-17" target="4bZR_SqXkPgcP1uEJA29-9">
          <mxGeometry width="50" height="50" relative="1" as="geometry">
            <mxPoint x="-6.039999999999992" y="569" as="sourcePoint" />
            <mxPoint x="394.96000000000004" y="750" as="targetPoint" />
            <Array as="points">
              <mxPoint x="-2" y="580" />
              <mxPoint x="-40" y="580" />
              <mxPoint x="-40" y="520" />
              <mxPoint x="400" y="520" />
            </Array>
          </mxGeometry>
        </mxCell>
        <mxCell id="4bZR_SqXkPgcP1uEJA29-36" value="" style="endArrow=none;html=1;rounded=0;edgeStyle=orthogonalEdgeStyle;entryX=0.5;entryY=1;entryDx=0;entryDy=0;exitX=0;exitY=0.75;exitDx=0;exitDy=0;" edge="1" parent="1" source="4bZR_SqXkPgcP1uEJA29-29" target="4bZR_SqXkPgcP1uEJA29-7">
          <mxGeometry width="50" height="50" relative="1" as="geometry">
            <mxPoint x="-40" y="780" as="sourcePoint" />
            <mxPoint x="439" y="690" as="targetPoint" />
            <Array as="points">
              <mxPoint x="-20" y="780" />
              <mxPoint x="-20" y="880" />
              <mxPoint x="440" y="880" />
            </Array>
          </mxGeometry>
        </mxCell>
        <mxCell id="4bZR_SqXkPgcP1uEJA29-37" value="" style="endArrow=none;html=1;rounded=0;entryX=-0.007;entryY=0.487;entryDx=0;entryDy=0;entryPerimeter=0;" edge="1" parent="1" target="4bZR_SqXkPgcP1uEJA29-17">
          <mxGeometry width="50" height="50" relative="1" as="geometry">
            <mxPoint x="-80" y="600" as="sourcePoint" />
            <mxPoint x="-5" y="600.5" as="targetPoint" />
          </mxGeometry>
        </mxCell>
        <mxCell id="4bZR_SqXkPgcP1uEJA29-38" value="" style="endArrow=none;html=1;rounded=0;edgeStyle=orthogonalEdgeStyle;exitX=0;exitY=0.75;exitDx=0;exitDy=0;" edge="1" parent="1" source="4bZR_SqXkPgcP1uEJA29-43">
          <mxGeometry width="50" height="50" relative="1" as="geometry">
            <mxPoint x="-10" y="620" as="sourcePoint" />
            <mxPoint x="-40" y="840" as="targetPoint" />
            <Array as="points">
              <mxPoint x="-40" y="621" />
              <mxPoint x="-40" y="810" />
            </Array>
          </mxGeometry>
        </mxCell>
        <mxCell id="4bZR_SqXkPgcP1uEJA29-41" value="" style="endArrow=none;html=1;rounded=0;edgeStyle=orthogonalEdgeStyle;exitX=0;exitY=0.5;exitDx=0;exitDy=0;" edge="1" parent="1" source="4bZR_SqXkPgcP1uEJA29-1" target="4bZR_SqXkPgcP1uEJA29-40">
          <mxGeometry width="50" height="50" relative="1" as="geometry">
            <mxPoint x="240" y="760" as="sourcePoint" />
            <mxPoint x="-120" y="840" as="targetPoint" />
            <Array as="points">
              <mxPoint x="200" y="760" />
              <mxPoint x="200" y="840" />
              <mxPoint x="88" y="840" />
            </Array>
          </mxGeometry>
        </mxCell>
        <mxCell id="4bZR_SqXkPgcP1uEJA29-40" value="" style="ellipse;whiteSpace=wrap;html=1;aspect=fixed;fillColor=#080808;" vertex="1" parent="1">
          <mxGeometry x="-45" y="835" width="10" height="10" as="geometry" />
        </mxCell>
        <mxCell id="4bZR_SqXkPgcP1uEJA29-42" value="" style="endArrow=none;html=1;rounded=0;entryX=-0.007;entryY=0.487;entryDx=0;entryDy=0;entryPerimeter=0;" edge="1" parent="1">
          <mxGeometry width="50" height="50" relative="1" as="geometry">
            <mxPoint x="-40" y="760" as="sourcePoint" />
            <mxPoint y="759.66" as="targetPoint" />
          </mxGeometry>
        </mxCell>
        <mxCell id="4bZR_SqXkPgcP1uEJA29-44" value="" style="endArrow=none;html=1;rounded=0;edgeStyle=orthogonalEdgeStyle;exitX=0;exitY=0.75;exitDx=0;exitDy=0;" edge="1" parent="1" source="4bZR_SqXkPgcP1uEJA29-17" target="4bZR_SqXkPgcP1uEJA29-43">
          <mxGeometry width="50" height="50" relative="1" as="geometry">
            <mxPoint x="-2" y="621" as="sourcePoint" />
            <mxPoint x="-40" y="840" as="targetPoint" />
            <Array as="points" />
          </mxGeometry>
        </mxCell>
        <mxCell id="4bZR_SqXkPgcP1uEJA29-43" value="" style="ellipse;whiteSpace=wrap;html=1;aspect=fixed;fillColor=#080808;" vertex="1" parent="1">
          <mxGeometry x="-45" y="755" width="10" height="10" as="geometry" />
        </mxCell>
        <mxCell id="4bZR_SqXkPgcP1uEJA29-46" value="" style="endArrow=none;html=1;rounded=0;entryX=0;entryY=0.25;entryDx=0;entryDy=0;" edge="1" parent="1" target="4bZR_SqXkPgcP1uEJA29-29">
          <mxGeometry width="50" height="50" relative="1" as="geometry">
            <mxPoint x="-20" y="740" as="sourcePoint" />
            <mxPoint x="-10" y="740" as="targetPoint" />
          </mxGeometry>
        </mxCell>
        <mxCell id="4bZR_SqXkPgcP1uEJA29-47" value="&lt;span style=&quot;font-size: 16px;&quot;&gt;&lt;b&gt;C&lt;/b&gt;&lt;/span&gt;" style="text;html=1;align=center;verticalAlign=middle;whiteSpace=wrap;rounded=0;" vertex="1" parent="1">
          <mxGeometry x="-101" y="810" width="60" height="30" as="geometry" />
        </mxCell>
        <mxCell id="4bZR_SqXkPgcP1uEJA29-48" value="&lt;span style=&quot;font-size: 16px;&quot;&gt;&lt;b&gt;J&lt;/b&gt;&lt;/span&gt;" style="text;html=1;align=center;verticalAlign=middle;whiteSpace=wrap;rounded=0;" vertex="1" parent="1">
          <mxGeometry x="-101" y="569" width="60" height="30" as="geometry" />
        </mxCell>
        <mxCell id="4bZR_SqXkPgcP1uEJA29-49" value="&lt;span style=&quot;font-size: 16px;&quot;&gt;&lt;b&gt;K&lt;/b&gt;&lt;/span&gt;" style="text;html=1;align=center;verticalAlign=middle;whiteSpace=wrap;rounded=0;" vertex="1" parent="1">
          <mxGeometry x="-43" y="710" width="60" height="30" as="geometry" />
        </mxCell>
      </root>
    </mxGraphModel>
  </diagram>
</mxfile>
